<svg xmlns="http://www.w3.org/2000/svg" xmlns:xlink="http://www.w3.org/1999/xlink" width="239.854" height="47.544" viewBox="0 0 239.854 47.544">
  <defs>
    <clipPath id="clip-path">
      <rect id="Rectangle_25" data-name="Rectangle 25" width="239.854" height="47.544" transform="translate(0 0)" fill="#f2f2f2"/>
    </clipPath>
  </defs>
  <g id="Group_82" data-name="Group 82" transform="translate(0 0)">
    <g id="Group_81" data-name="Group 81" clip-path="url(#clip-path)">
      <path id="Path_6" data-name="Path 6" d="M97.761,5.92a1.731,1.731,0,0,1-.4.948,17.143,17.143,0,0,1-3.757,2.808,50.382,50.382,0,0,0-7.45,5.8q4.407,3.971,6,5.58Q96.5,25.416,96.5,27.006a1.142,1.142,0,0,1-.609.993,2.425,2.425,0,0,1-1.322.385q-1.26,0-3.484-2.361-1.47-1.646-2.9-3.327-.294-.3-4.827-4.578a1.165,1.165,0,0,1-1.007.25q-.336,6.618-.336,7.136,0,3.024-1.784,3.023a1.243,1.243,0,0,1-1.386-.966,9.214,9.214,0,0,1-.084-1.735q0-2.879-.377-8.567t-.378-8.567q0-4.7,2.98-4.7,2.184,0,2.183,1.95,0,1.663-.252,4.382-.315,3.344-.4,4.364Q85.4,12.09,91.045,6.868L92.6,5.42a5.79,5.79,0,0,1,1.868-1.056,2.791,2.791,0,0,1,.923-.161,2.879,2.879,0,0,1,1.637.492,1.443,1.443,0,0,1,.735,1.225" fill="#f2f2f2"/>
      <path id="Path_7" data-name="Path 7" d="M112.578,5.634q0,1.682-4.05,1.807,0,.517-.053,1.663t-.052,1.735v3.684q0,1.413-.158,4.167t-.157,4.168q0,.858.126,2.593,3.273.089,3.274,1.556,0,1.305-2.33,1.305h-6.422a1.164,1.164,0,0,1-.924-.411,1.337,1.337,0,0,1-.357-.894q0-1.377,3.589-1.5-.5-4.884-1.448-14.666a30.26,30.26,0,0,1-.168-3.309c-.364.024-.685.036-.965.036q-2.771,0-2.771-1.628,0-1.181,1.868-1.574a25.42,25.42,0,0,1,5.017-.393h2.581q3.4,0,3.4,1.663" fill="#f2f2f2"/>
      <path id="Path_8" data-name="Path 8" d="M147.923,10.248a5.567,5.567,0,0,1-.713,2.772,2.669,2.669,0,0,1-2.435,1.592,2.3,2.3,0,0,1-1.606-.626,1.882,1.882,0,0,1-.682-1.413,4.89,4.89,0,0,1,.252-1.27,4.877,4.877,0,0,0,.252-1.269q0-1.806-2.54-1.807a7.858,7.858,0,0,0-6.317,3.184,9.587,9.587,0,0,0-2.33,6.17,7.58,7.58,0,0,0,2.015,5.062,6.715,6.715,0,0,0,5.289,2.557,6.6,6.6,0,0,0,2.372-.608,6.6,6.6,0,0,1,2.036-.608,1.687,1.687,0,0,1,1.2.474,1.415,1.415,0,0,1,.5,1.046q0,1.162-2.623,2.093a12.552,12.552,0,0,1-3.841.715,11.036,11.036,0,0,1-8.332-3.648,10.842,10.842,0,0,1-3.274-7.691A12.523,12.523,0,0,1,130.8,8.227,12.445,12.445,0,0,1,140.22,4.06a8.89,8.89,0,0,1,5.52,1.609,5.533,5.533,0,0,1,2.183,4.579" fill="#f2f2f2"/>
      <path id="Path_9" data-name="Path 9" d="M172.821,6.135a3.236,3.236,0,0,1-.1.662,38.7,38.7,0,0,0-1.175,7.511q0,1.9.21,5.652t.209,5.652q0,2.915-1.742,2.915-1.113,0-1.406-1.27a20.7,20.7,0,0,1-.147-2.11,32.333,32.333,0,0,0-.567-4.185,66.878,66.878,0,0,1-8.353.733,25.646,25.646,0,0,1-4.113-.3q0,5.365-.526,6.438a1.154,1.154,0,0,1-1.091.734,1.412,1.412,0,0,1-1.385-1.037,16.243,16.243,0,0,1-.357-4.454,73.107,73.107,0,0,0-.535-7.315,73.083,73.083,0,0,1-.535-7.315,9.682,9.682,0,0,1,.357-3.076A2,2,0,0,1,153.6,3.9a3.154,3.154,0,0,1,1.879.609,1.8,1.8,0,0,1,.85,1.5,29.787,29.787,0,0,1-.4,3.979,29.85,29.85,0,0,0-.4,4.015q0,.215.106,3.846a17.741,17.741,0,0,0,2.875.214q1.279,0,4.512-.268a45.408,45.408,0,0,1,4.555-.161,37.394,37.394,0,0,1-.588-5.974q0-4.255.944-5.955a2.562,2.562,0,0,1,2.351-1.5,2.973,2.973,0,0,1,1.753.555,1.641,1.641,0,0,1,.787,1.377" fill="#f2f2f2"/>
      <path id="Path_10" data-name="Path 10" d="M197.256,26.792a1.084,1.084,0,0,1-.482.885,1.79,1.79,0,0,1-2.666-.581q-.419-.966-1.28-2.9-1.868.161-3.988.161-1.573,0-4.114-.107-3.294-.09-4.113-.108a30.688,30.688,0,0,1-1.26,3.237,1.543,1.543,0,0,1-1.28.823,1.671,1.671,0,0,1-1-.322.942.942,0,0,1-.452-.787,1.569,1.569,0,0,1,.042-.358q.861-4.65,2.75-11.3,2.412-8.478,3.945-10.32a2.563,2.563,0,0,1,2.015-.912,3.417,3.417,0,0,1,1.952.564,6.214,6.214,0,0,1,1.742,2.548q.609,1.467,1.218,2.933,1.782,3.578,5.079,10.875a1.664,1.664,0,0,1,.546,1.484,18.379,18.379,0,0,1,1.342,4.185m-6.443-6.349q-1.784-3.165-5.268-9.515a43.807,43.807,0,0,0-1.931,4.757q-.817,2.433-1.637,4.847,4.932-.142,6.443-.143,1.113,0,2.393.054" fill="#f2f2f2"/>
      <path id="Path_11" data-name="Path 11" d="M217.544,6.135q0,2.521-7.745,2.253a38.841,38.841,0,0,1-.315,4.4q-.294,2.164-.566,4.364-.294,3.416-.945,10.248a4.152,4.152,0,0,1-2.1.715.622.622,0,0,1-.692-.715q0-1.9.1-5.678t.1-5.679q0-.822-.063-2.486t-.063-2.486a26.176,26.176,0,0,1,.126-2.683q-2.393.036-7.2.268a4.348,4.348,0,0,1-1.426-2.593q0-.536.944-.786a20.616,20.616,0,0,1,2.9-.43q3.691-.393,6.505-.572,5.27-.375,6.969-.376,3.464,0,3.463,2.236" fill="#f2f2f2"/>
      <path id="Path_12" data-name="Path 12" d="M239.854,26.792a1.084,1.084,0,0,1-.482.885,1.79,1.79,0,0,1-2.666-.581q-.418-.966-1.28-2.9-1.867.161-3.988.161-1.573,0-4.114-.107-3.294-.09-4.113-.108a30.687,30.687,0,0,1-1.26,3.237,1.544,1.544,0,0,1-1.28.823,1.671,1.671,0,0,1-1-.322.942.942,0,0,1-.452-.787,1.569,1.569,0,0,1,.042-.358q.861-4.65,2.75-11.3,2.412-8.478,3.945-10.32a2.563,2.563,0,0,1,2.015-.912,3.417,3.417,0,0,1,1.952.564,6.214,6.214,0,0,1,1.742,2.548q.609,1.467,1.218,2.933,1.782,3.578,5.079,10.875a1.664,1.664,0,0,1,.546,1.484,18.379,18.379,0,0,1,1.342,4.185m-6.443-6.349q-1.783-3.165-5.268-9.515a43.8,43.8,0,0,0-1.931,4.757q-.817,2.433-1.637,4.847,4.932-.142,6.443-.143,1.113,0,2.393.054" fill="#f2f2f2"/>
      <path id="Path_13" data-name="Path 13" d="M59.592,26.814a13.173,13.173,0,0,1-.356,5.305l-.353-.3a12.213,12.213,0,0,0,.259-5.287Z" fill="#f2f2f2" fill-rule="evenodd"/>
      <path id="Path_14" data-name="Path 14" d="M40.586,18.574c-.044,0-.1-.007-.16-.012h.042ZM47.7,15.543a30.634,30.634,0,0,0-7.645-5.868c-7.848-3.749-15.167.718-17.557,1.951-3.077,1.576-1,3.849.258,3.756L31.5,11.907c2.808-1.173,2.326-.693.992,3.178a22.193,22.193,0,0,0-.887,2.723c2.577-.148,5.132-.187,7.722-.1A13.046,13.046,0,0,1,46.609,15.5q.552,0,1.093.045M25.9,28.9c.114-.2.216-.383.305-.556a38.491,38.491,0,0,0,2.33-5.24,16.06,16.06,0,0,0-2.838-2.92c-.226-.175-.284-.24-.345-.221A31.692,31.692,0,0,0,21.3,21.492,13.108,13.108,0,0,1,25.9,28.9M27.36,17.96a4.15,4.15,0,0,0,.717.494c.1-.036.953-.229,1.794-.409l.468-1.857Zm2.274,1.519.16-.653-.855.193c.016.016.671.449.7.46M25.672,5.157l4.77-1.267c.957,1.754,6.228,2.318,6.784-.4l2.074.063C36.122-1.272,28.208-1.6,25.672,5.157m-1.208,14.4c-.065-.054-.945-.352-1.054-.384-2.055-.607-7.749-1.727-9.457-2.267-.314-1.929,3.2-5.05,4.731-6.221A22.357,22.357,0,0,1,26.734,6.9a17.958,17.958,0,0,1,14.02,1.818,26.157,26.157,0,0,1,7.628,6.9,13.12,13.12,0,0,1,10.233,7.726q-.335-.18-.67-.356a12.144,12.144,0,0,0-8.762-6.357A12.848,12.848,0,0,1,51,19.5a34.413,34.413,0,0,1-2.3-2.789l-.146-.169a12.314,12.314,0,0,0-1.366-.077,12.079,12.079,0,0,0-5.562,1.348c-.349.194-.823.467-1.25.739-.006,0-.006.006,0,.007a12.25,12.25,0,0,0-1.665,1.363h0c-.008,0-.182.181-.326.336l-.012.011-.01.012-.062.065-.009.01-.009.01-.088.094h0A12.129,12.129,0,0,0,54.3,38.42c.353-.276.272.133.065.744A13.1,13.1,0,0,1,38.354,18.426a38.521,38.521,0,0,0-7.077.177l-.42,1.417A19.713,19.713,0,0,0,32.9,21.346,10.855,10.855,0,0,1,30.8,25.659a56.821,56.821,0,0,1-4.619,5.168c.019.3.03.593.03.893a13.049,13.049,0,0,1-1.472,6.039c-.143.222-.263.16-.347-.341a12.079,12.079,0,0,0,1.423-5.7c0-.171,0-.342-.011-.511a23.663,23.663,0,0,1-2.809,2.462c.391-.911,1.687-2.747,2.6-4.245a12.13,12.13,0,0,0-4.93-7.624c-1.937.96-3.517,2.027-6.15,3.459l.324-.355s.307-.246.348-.276c.235-.176.4-.288.632-.449,1.671-1.074,2.987-1.926,4.387-2.688a12.129,12.129,0,1,0,.59,20.052c.227-.1.166.286.065.744a13.1,13.1,0,1,1-.015-21.136,33.256,33.256,0,0,1,3.618-1.586" fill="#f2f2f2" fill-rule="evenodd"/>
      <path id="Path_15" data-name="Path 15" d="M104.1,44.472c1.6-.326,3.645-1.144,3.645-2.467,0-.817-.523-1.242-1.7-1.879-1.389-.752-2.353-1.439-2.353-2.6,0-1.732,2.418-3.317,4.657-3.824l.343,1.258c-1,.164-3.415.916-3.415,2.288,0,.85,1.16,1.373,1.846,1.781,1.243.736,2.239,1.259,2.239,2.582,0,1.6-1.7,3.351-4.837,4.086Zm0-13.008.654-.784,1.8,1.34,1.633-1.34.638.784-2.288,1.6Z" fill="#f2f2f2"/>
      <path id="Path_16" data-name="Path 16" d="M112.151,45.4c.033-.7.082-4.642.082-5.8V37.8c0-.376-.049-3.6-.049-3.84a22.318,22.318,0,0,1,3.073.213c2.189.359,3.562,1.405,3.562,3.137,0,2.239-2.059,4.053-5.164,4.674v.964c0,.327,0,2.108.032,2.452Zm1.5-4.56c2.059-.441,3.579-1.487,3.579-3.285,0-.49-.278-2.337-3.579-2.385Z" fill="#f2f2f2"/>
      <path id="Path_17" data-name="Path 17" d="M122.578,40.468c0,1.634.049,4.56.065,4.936h-1.585c.033-.72.049-4.543.049-4.968V38.671c0-.278-.049-4.315-.081-4.707h1.634c-.033.294-.082,2.778-.082,4.739Z" fill="#f2f2f2"/>
      <path id="Path_18" data-name="Path 18" d="M134.051,45.5a12.089,12.089,0,0,1-2.223.164c-5.573,0-6.962-3.334-6.962-4.838,0-2.68,2.468-6.095,8.236-7.125l.245,1.373c-3.742.425-6.831,2.663-6.831,5.474,0,1.994,1.569,3.873,5.475,3.873a8.591,8.591,0,0,0,1.9-.229Zm-5.165-14.038.654-.784,1.8,1.34,1.634-1.34.637.784-2.288,1.6Z" fill="#f2f2f2"/>
      <path id="Path_19" data-name="Path 19" d="M134.016,44.865c.9-1.569,5.606-10.852,6-11.473h.033c1.438,2.321,5.311,9.691,6.423,11.391l-1.39.915c-.327-.621-2.059-3.971-2.239-4.233l-5.67.229c-.2.31-1.536,3.465-1.814,4.02Zm8.335-4.446c-.18-.359-2.189-4.167-2.353-4.428-.245.359-2.125,4.363-2.272,4.625Zm-1.585-10,.784,1.144-2.6,1.373-.425-.589Z" fill="#f2f2f2"/>
      <path id="Path_20" data-name="Path 20" d="M148.153,45.567c.033-.474.082-3.236.082-5.1V38.736c0-1.422-.082-4.559-.082-4.935h1.635c-.017.261-.082,3.35-.082,4.772v1.765c0,1.258.049,4.919.082,5.229Zm7.452-.1c-.163-.229-5.082-5.3-5.785-6.079.278-.262,4.952-4.87,5.328-5.295l.947,1.079c-.621.587-3.578,3.235-4.445,4.1.507.621,4.413,4.445,5.034,5.05Z" fill="#f2f2f2"/>
      <path id="Path_21" data-name="Path 21" d="M166.963,45.4c.082-.425.1-5.2.1-7.795V35.174c-1.88,0-4.2.082-4.625.147V33.932c.653.131,4.526.2,4.706.2h1.422c.31,0,3.873-.065,4.592-.2v1.389c-.229-.065-3.253-.147-4.625-.147v2.7c0,3.318.163,7.207.2,7.534Z" fill="#f2f2f2"/>
      <path id="Path_22" data-name="Path 22" d="M171.637,44.864c.9-1.569,5.605-10.851,6-11.472h.034c1.438,2.32,5.311,9.691,6.422,11.39L182.7,45.7c-.328-.62-2.059-3.97-2.239-4.232l-5.671.229c-.2.31-1.536,3.464-1.813,4.02Zm8.334-4.445c-.18-.359-2.189-4.167-2.354-4.429-.245.36-2.124,4.364-2.271,4.625Z" fill="#f2f2f2"/>
      <path id="Path_23" data-name="Path 23" d="M185.315,45.4c.082-1.226.522-10.41.6-12.093h.034c.457.523,8.367,8.743,8.889,9.266,0-.458.1-8.155.115-8.694l1.519.082c-.064.98-.375,7.664-.44,11.782H196c-.442-.441-8.71-8.923-9.038-9.331,0,.572-.13,8.563-.114,9.1Z" fill="#f2f2f2"/>
      <path id="Path_24" data-name="Path 24" d="M209.419,34.487c-.571.85-5.556,10.328-6.145,11.456h-.032c-.344-.507-5.132-10.705-5.622-11.456l1.4-.785c.262.736,4.07,8.727,4.4,9.234.277-.392,4.461-8.711,4.657-9.234Z" fill="#f2f2f2"/>
      <path id="Path_25" data-name="Path 25" d="M207.834,44.864c.9-1.569,5.6-10.851,6-11.472h.033c1.438,2.32,5.311,9.691,6.422,11.39L218.9,45.7c-.327-.62-2.059-3.97-2.239-4.232l-5.671.229c-.195.31-1.536,3.464-1.813,4.02Zm8.334-4.445c-.18-.359-2.189-4.167-2.354-4.429-.245.36-2.124,4.364-2.271,4.625Z" fill="#f2f2f2"/>
      <path id="Path_26" data-name="Path 26" d="M223.653,33.964c-.065.359-.131,3.579-.131,5.638v4.625c.393,0,2.321,0,3.89-.066v1.406c-.229,0-5.082-.164-5.491-.164.13-.866.13-4.363.13-4.755V38.474c0-.261-.032-4.2-.065-4.51Z" fill="#f2f2f2"/>
      <path id="Path_27" data-name="Path 27" d="M229.781,38.213c0-.343-.016-3.791-.082-4.249a35.635,35.635,0,0,1,4.168.164c5.327.669,5.982,3.039,5.982,4.183,0,5.066-6.44,7.174-10.165,7.174.065-.751.1-4.8.1-5.246Zm1.471,5.834c4.462-.392,6.995-3.023,6.995-5.311,0-2.484-2.763-3.6-6.995-3.546Z" fill="#f2f2f2"/>
      <path id="Path_28" data-name="Path 28" d="M72.11,10.089c-.07-.01-.138-.022-.206-.036a2.641,2.641,0,0,1-2.109-3.076,2.5,2.5,0,0,1,1.019-1.533,10.221,10.221,0,0,0-.569-2.066c1.286,0,2.657-1.31,5.033,1.6a3.327,3.327,0,0,1,.787,2.069,5.2,5.2,0,0,1-1.107,3.466c-1.324,1.6-2.207,1.976-2.886,2.1.21-.6-.26-1.436.038-2.527M66.928,28.144l.1.063c.248.164.5.321.756.476.805.494,1.624.971,2.443,1.442q3.518,2.024,7.112,3.919c1.791.945,3.6,1.871,5.428,2.74A38.273,38.273,0,0,0,87,38.577l1.068.353-1.089.283c-3.654.946-8.587-1.228-11.785-2.878-2.17-1.119-4.266-2.383-6.331-3.684-.834-.526-1.663-1.059-2.5-1.586-.539-.34-1.088-.69-1.646-1a8.645,8.645,0,0,0-.821.523c-.531.359-1.053.734-1.571,1.112-.64.467-1.278.941-1.907,1.423,2.591,2.195,5.181,4.386,7.838,6.5,3.193,2.542,6.466,4.968,9.858,7.238l1.018.682-.865-.053-1-.085c-3.949-.5-7.878-3.366-10.872-5.829-1.972-1.622-3.862-3.352-5.736-5.086-1.99-1.84-3.966-3.7-5.993-5.5-4.656-4.133-10.165-8.547-16.179-10.44l-.3-.093c.042-.045.5-.541.516-.539a24.476,24.476,0,0,1,3.439.9,34.917,34.917,0,0,1,8.714,4.642c3,2.105,5.833,4.5,8.63,6.863.494-.526,1-1.046,1.493-1.57.4-.426.8-.854,1.193-1.292.185-.208.39-.436.571-.668-1.808-1.148-3.618-2.294-5.453-3.4-4.941-2.97-10.959-6.265-16.824-6.843-.031,0-.118.008-.092-.008.427-.273.9-.545,1.25-.739.005,0,.1.008.15.012a42.323,42.323,0,0,1,14.56,4.347c1.941.946,3.813,1.992,5.669,3.092.589.349,1.175.706,1.768,1.045.114.064.442.256.657.351a8.824,8.824,0,0,0,.62-1.37,16.631,16.631,0,0,0,.585-2,7.729,7.729,0,0,0,.193-1.027,20.663,20.663,0,0,0-4.13-4.483c-1.537-1.33-3.15-2.546-4.739-3.81a19.447,19.447,0,0,1-1.6-1.365c-.268-.266-.728-.733-.563-1.152,2.539-6.437,11.8-6,14.6-5.721-1.527,1.031-.991,3.607.569,4.2-1.5.319-3.115.446-4.746.707-1.055.169-3.594.65-3.831,1.995-.27,1.523,2.367,3.657,3.41,4.464s2.154,1.555,3.269,2.273c.379.244.76.484,1.136.731.2.129.582.335.587.6l-.2.819q-.129.549-.272,1.093a22.476,22.476,0,0,1-1.147,3.344,10.744,10.744,0,0,1-1.253,2.18" fill="#009bde" fill-rule="evenodd"/>
    </g>
  </g>
</svg>
